<svg width="248" height="27" viewBox="0 0 248 27" fill="none" xmlns="http://www.w3.org/2000/svg">
<path d="M1.62 21V2.1H4.725V21H1.62ZM8.24449 20.865V1.992L38.8625 16.275V2.1H41.9405V21C41.9405 21 41.8955 20.982 41.8055 20.946C41.7335 20.91 41.5535 20.829 41.2655 20.703C40.9955 20.559 40.5725 20.352 39.9965 20.082C39.4205 19.812 38.6375 19.443 37.6475 18.975C36.6575 18.507 35.4155 17.931 33.9215 17.247C32.4455 16.545 30.6455 15.699 28.5215 14.709C26.3975 13.719 23.9225 12.567 21.0965 11.253C18.2705 9.921 15.0215 8.4 11.3495 6.69V20.865H8.24449ZM45.4549 10.065H77.2609V13.008H48.5599V21H45.4819L45.4549 10.065ZM79.0969 2.046V5.016H45.4549V2.073L79.0969 2.046ZM86.8506 2.1H109.882C110.602 2.1 111.286 2.235 111.934 2.505C112.582 2.757 113.149 3.117 113.635 3.585C114.121 4.035 114.499 4.566 114.769 5.178C115.057 5.79 115.201 6.447 115.201 7.149V16.005C115.201 16.707 115.057 17.364 114.769 17.976C114.499 18.588 114.121 19.128 113.635 19.596C113.149 20.046 112.582 20.406 111.934 20.676C111.286 20.928 110.602 21.054 109.882 21.054H86.8506C86.1126 21.054 85.4196 20.928 84.7716 20.676C84.1416 20.406 83.5836 20.046 83.0976 19.596C82.6116 19.128 82.2246 18.588 81.9366 17.976C81.6666 17.364 81.5316 16.707 81.5316 16.005V7.149C81.5316 6.447 81.6666 5.79 81.9366 5.178C82.2246 4.566 82.6116 4.035 83.0976 3.585C83.5836 3.117 84.1416 2.757 84.7716 2.505C85.4196 2.235 86.1126 2.1 86.8506 2.1ZM86.8236 18.057H109.855C110.179 18.057 110.476 18.003 110.746 17.895C111.016 17.769 111.25 17.616 111.448 17.436C111.664 17.238 111.826 17.013 111.934 16.761C112.06 16.509 112.123 16.248 112.123 15.978V7.122C112.123 6.852 112.06 6.591 111.934 6.339C111.826 6.087 111.664 5.871 111.448 5.691C111.25 5.493 111.016 5.34 110.746 5.232C110.476 5.124 110.179 5.07 109.855 5.07H86.8236C86.4996 5.07 86.2026 5.124 85.9326 5.232C85.6626 5.34 85.4196 5.493 85.2036 5.691C85.0056 5.871 84.8436 6.087 84.7176 6.339C84.6096 6.591 84.5556 6.852 84.5556 7.122V15.978C84.5556 16.248 84.6096 16.509 84.7176 16.761C84.8436 17.013 85.0056 17.238 85.2036 17.436C85.4196 17.616 85.6626 17.769 85.9326 17.895C86.2026 18.003 86.4996 18.057 86.8236 18.057ZM117.636 2.1H141.342V2.127C142.692 2.127 143.97 2.379 145.176 2.883C146.382 3.369 147.435 4.044 148.335 4.908C149.235 5.754 149.946 6.753 150.468 7.905C151.008 9.039 151.278 10.254 151.278 11.55C151.278 12.882 151.008 14.124 150.468 15.276C149.928 16.41 149.199 17.409 148.281 18.273C147.381 19.119 146.328 19.785 145.122 20.271C143.916 20.757 142.656 21 141.342 21H117.636V18.057H141.315C142.233 18.057 143.106 17.895 143.934 17.571C144.762 17.247 145.482 16.797 146.094 16.221C146.724 15.627 147.219 14.934 147.579 14.142C147.957 13.35 148.146 12.486 148.146 11.55C148.146 10.668 147.966 9.84 147.606 9.066C147.264 8.274 146.787 7.581 146.175 6.987C145.563 6.393 144.834 5.925 143.988 5.583C143.16 5.241 142.269 5.07 141.315 5.07H117.636V2.1ZM186.888 2.127H214.806V5.097H186.888C186.528 5.097 186.186 5.16 185.862 5.286C185.538 5.412 185.259 5.592 185.025 5.826C184.791 6.042 184.602 6.303 184.458 6.609C184.332 6.915 184.269 7.239 184.269 7.581C184.269 7.923 184.332 8.247 184.458 8.553C184.602 8.859 184.791 9.129 185.025 9.363C185.259 9.579 185.538 9.759 185.862 9.903C186.186 10.029 186.528 10.092 186.888 10.092H209.136V10.065C210.216 10.065 211.17 10.317 211.998 10.821C212.844 11.307 213.501 11.937 213.969 12.711C214.455 13.467 214.725 14.322 214.779 15.276C214.851 16.212 214.653 17.13 214.185 18.03C213.717 18.912 213.033 19.623 212.133 20.163C211.233 20.703 210.216 20.973 209.082 20.973H191.64C191.46 20.775 191.136 20.424 190.668 19.92C190.2 19.416 189.624 18.786 188.94 18.03H209.082C209.442 18.03 209.784 17.967 210.108 17.841C210.432 17.697 210.711 17.517 210.945 17.301C211.179 17.067 211.359 16.797 211.485 16.491C211.629 16.185 211.701 15.861 211.701 15.519C211.701 14.817 211.449 14.232 210.945 13.764C210.441 13.278 209.838 13.035 209.136 13.035H209.082C206.22 13.017 203.7 13.008 201.522 13.008C199.362 12.99 197.472 12.99 195.852 13.008C194.232 13.008 192.855 13.017 191.721 13.035C190.605 13.053 189.66 13.062 188.886 13.062C188.112 13.062 187.482 13.053 186.996 13.035C186.51 13.017 186.105 12.99 185.781 12.954C185.475 12.9 185.205 12.828 184.971 12.738C184.755 12.648 184.512 12.531 184.242 12.387C183.198 11.847 182.424 11.145 181.92 10.281C181.416 9.399 181.164 8.517 181.164 7.635V7.527C181.164 6.807 181.317 6.123 181.623 5.475C181.929 4.809 182.343 4.233 182.865 3.747C183.387 3.243 183.99 2.847 184.674 2.559C185.376 2.271 186.114 2.127 186.888 2.127ZM184.998 18.003L187.698 20.973H154.002V18.03L184.998 18.003ZM153.975 13.035V10.065H177.681L180.354 13.008L180.381 13.035H153.975ZM153.975 2.046H170.418L170.391 2.073C170.877 2.595 171.345 3.099 171.795 3.585C172.245 4.071 172.677 4.548 173.091 5.016H153.975V2.046ZM217.526 2.073H220.604V15.411L240.8 2.073L246.254 2.127L236.831 8.31C235.517 9.174 234.14 10.074 232.7 11.01C231.278 11.946 229.856 12.882 228.434 13.818C227.03 14.736 225.653 15.636 224.303 16.518C222.971 17.4 221.738 18.21 220.604 18.948L217.526 20.946V2.073ZM233.375 13.008L235.967 11.307L235.994 11.28C237.416 12.504 238.64 13.557 239.666 14.439C240.71 15.321 241.646 16.131 242.474 16.869C243.32 17.589 244.112 18.273 244.85 18.921C245.606 19.551 246.407 20.235 247.253 20.973H242.663L238.046 17.004C237.47 16.5 236.903 16.005 236.345 15.519C235.787 15.033 235.292 14.61 234.86 14.25C234.356 13.818 233.87 13.413 233.402 13.035L233.375 13.008Z" fill="#EBEBEB"/>
</svg>
