<svg width="115" height="70" viewBox="0 0 115 70" fill="none" xmlns="http://www.w3.org/2000/svg">
<g clip-path="url(#clip0_217_2212)">
<path d="M114.425 69.433H0.575195V43.8894H114.425V69.433Z" fill="#EBEBEB"/>
<path d="M97.5728 60.7975C95.676 60.7975 94.0802 59.5276 93.589 57.7925H104.119L105.562 55.5454H93.5762C94.0745 53.806 95.6675 52.546 97.5728 52.546H104.811L106.257 50.2834H97.401C93.8672 50.2834 91.005 53.1399 91.005 56.6597C91.005 60.188 93.8672 63.046 97.401 63.046H105.005L106.449 60.7975H97.5728ZM67.4428 63.046C63.9048 63.046 61.0468 60.188 61.0468 56.6597C61.0468 53.1399 63.9048 50.2834 67.4428 50.2834H76.2921L74.8354 52.546H67.6132C65.3203 52.546 63.4646 54.39 63.4646 56.6597C63.4646 58.945 65.3203 60.7975 67.6132 60.7975H76.5008L75.047 63.046H67.4428ZM20.6662 60.7975C22.9562 60.7975 24.8218 58.945 24.8218 56.6597C24.8218 54.39 22.9562 52.546 20.6662 52.546H13.5603C11.2745 52.546 9.41322 54.39 9.41322 56.6597C9.41322 58.945 11.2745 60.7975 13.5603 60.7975H20.6662ZM13.3942 63.046C9.85902 63.046 6.98828 60.188 6.98828 56.6597C6.98828 53.1399 9.85902 50.2834 13.3942 50.2834H20.8422C24.3817 50.2834 27.2382 53.1399 27.2382 56.6597C27.2382 60.188 24.3817 63.0502 20.8422 63.0502L13.3942 63.046ZM39.3317 58.9167C41.7353 58.9167 43.6633 56.9765 43.6633 54.6022C43.6633 52.2236 41.7353 50.2834 39.3317 50.2834H28.5558V63.046H31.0162V52.546H39.167C40.2999 52.546 41.237 53.4609 41.237 54.6022C41.237 55.7405 40.2999 56.6597 39.167 56.6597H32.2258L39.5773 63.046H43.1593L38.2115 58.9167H39.3317ZM80.0772 60.7975V50.2834H77.6196V61.8298C77.6196 62.1438 77.7388 62.4478 77.9745 62.6755C78.223 62.9102 78.5396 63.046 78.8775 63.046H90.1021L91.5644 60.7975H80.0772ZM49.9216 58.5405H56.5064L53.0323 52.9731L46.6519 63.046L43.7485 63.0502L51.5061 50.9438C51.8468 50.4616 52.4033 50.1519 53.0323 50.1519C53.6329 50.1519 54.1951 50.4502 54.5174 50.9282L62.3146 63.0502L59.3928 63.046L58.0355 60.7933H51.3754L49.9216 58.5405Z" fill="#1C1917"/>
<path d="M108.684 51.5283C108.783 51.5283 108.886 51.5156 108.949 51.4222C108.972 51.3855 108.986 51.343 108.986 51.2851C108.986 51.1988 108.938 51.1196 108.87 51.097C108.8 51.0588 108.724 51.0588 108.57 51.0588H108.471V51.5283H108.684ZM108.57 50.8043C108.8 50.8043 108.886 50.8043 108.986 50.8424C109.279 50.9428 109.31 51.1988 109.31 51.2907C109.31 51.3077 109.302 51.3657 109.293 51.4222C109.279 51.4887 109.235 51.6146 109.096 51.6994C109.077 51.7093 109.066 51.7234 109.019 51.7418L109.395 52.4008H109.028L108.708 51.7857H108.471V52.4008H108.169V50.8043H108.57ZM108.708 53.0839C109.496 53.0839 110.151 52.4362 110.151 51.6542C110.151 50.8566 109.496 50.2202 108.708 50.2202C107.902 50.2202 107.266 50.8566 107.266 51.6542C107.266 52.4362 107.902 53.0839 108.708 53.0839ZM107.575 51.6386C107.575 51.0277 108.075 50.5158 108.708 50.5158C109.331 50.5158 109.841 51.0277 109.841 51.6386C109.841 52.2778 109.331 52.7812 108.708 52.7812C108.075 52.7812 107.575 52.2778 107.575 51.6386Z" fill="#EBEBEB"/>
<path d="M62.9961 25.9248C62.9961 28.4518 62.0648 30.5306 60.2035 32.1526C58.3393 33.7732 55.8406 34.5835 52.71 34.5835C49.7825 34.5835 46.943 33.653 44.1943 31.7963L45.4806 29.2367C47.8459 30.4175 49.9869 31.0015 51.9093 31.0015C53.7124 31.0015 55.1236 30.6027 56.1458 29.8137C57.1624 29.0189 57.7743 27.9102 57.7743 26.4989C57.7743 24.7312 56.5334 23.2153 54.2618 21.9454C52.162 20.7985 47.9624 18.4029 47.9624 18.4029C45.6908 16.7512 44.5493 14.9779 44.5493 12.0563C44.5493 9.63951 45.3969 7.68799 47.0977 6.20032C48.7943 4.71264 50.995 3.97021 53.6854 3.97021C56.4638 3.97021 58.9882 4.70698 61.2697 6.17769L60.114 8.74011C58.1647 7.91708 56.2424 7.50274 54.3498 7.50274C52.8108 7.50274 51.6267 7.87042 50.799 8.60719C49.9727 9.34395 49.4574 10.2872 49.4574 11.4355C49.4574 13.2003 50.7266 14.7318 53.065 16.0258C55.1903 17.1783 59.4936 19.6191 59.4936 19.6191C61.8305 21.2694 62.9961 23.03 62.9961 25.9248Z" fill="#EBEBEB"/>
<path d="M90.0498 12.1868H93.7752L94.1302 14.6587C96.3209 12.7157 98.5953 11.7441 100.963 11.7441C105.392 11.7441 107.615 15.0391 107.615 21.6403V34.1823H103.042V22.5227C103.042 19.8698 102.751 18.0229 102.159 16.9793C101.568 15.93 100.648 15.411 99.4074 15.411C98.1083 15.411 96.5125 16.1464 94.62 17.6185V34.1823H90.0498V12.1868Z" fill="#EBEBEB"/>
<path d="M84.4373 34.1828H80.7118L80.3569 31.7081C78.1662 33.6525 75.896 34.6283 73.5279 34.6283C69.0911 34.6283 66.8721 31.3262 66.8721 24.7307V12.1873H71.4408V23.8483C71.4408 26.4984 71.7361 28.3481 72.3296 29.3903C72.9188 30.4382 73.8388 30.9586 75.0797 30.9586C76.3787 30.9586 77.9745 30.2246 79.8671 28.7469V12.1873H84.4373V34.1828Z" fill="#EBEBEB"/>
<path d="M25.9008 19.4986L25.1753 18.7746L32.6247 11.356L30.7961 9.53174L23.4361 16.8598C22.8213 17.4622 22.5132 18.2641 22.5147 19.0574C22.5147 19.8606 22.8213 20.6554 23.4347 21.2578C24.0423 21.8659 24.8345 22.1671 25.6395 22.1671C26.4346 22.1671 27.2325 21.8659 27.8416 21.2578L35.203 13.9241L33.3516 12.0814L25.9008 19.4986Z" fill="#EBEBEB"/>
<path d="M35.706 18.5427L36.4343 19.2653L28.9849 26.6839L30.8149 28.5053L38.1707 21.1787C38.7854 20.5762 39.0935 19.7758 39.0907 18.9811C39.0907 18.1807 38.7854 17.3845 38.1707 16.7807C37.5644 16.1754 36.7694 15.8728 35.9686 15.8728C35.1736 15.8728 34.3743 16.1726 33.7666 16.7835L26.4023 24.1144L28.2551 25.9599L35.706 18.5427Z" fill="#EBEBEB"/>
<path d="M21.0432 13.7027L20.3205 14.4309L12.8711 7.01377L11.041 8.82811L18.3953 16.159C19.0016 16.7728 19.8066 17.0782 20.6045 17.0782C21.4109 17.0782 22.2045 16.7728 22.815 16.159C23.4227 15.5552 23.7237 14.7647 23.7237 13.9657C23.7222 13.1752 23.4227 12.3748 22.8136 11.7709L15.4508 4.43579L13.5994 6.28549L21.0432 13.7027Z" fill="#EBEBEB"/>
<path d="M20.0843 3.93987L20.8098 3.21441L28.2607 10.6344L30.0922 8.813L22.735 1.48492C22.1274 0.872593 21.3238 0.567139 20.5245 0.567139C19.7181 0.567139 18.9258 0.872593 18.3139 1.48492C17.7077 2.08734 17.4053 2.87926 17.4053 3.67684C17.4053 4.46734 17.7077 5.2635 18.3168 5.873L25.681 13.2053L27.531 11.3613L20.0843 3.93987Z" fill="#EBEBEB"/>
<path d="M21.0661 34.1006L20.3406 34.8232L12.8926 27.4032L11.0625 29.2274L18.4197 36.5541C19.0216 37.1664 19.8281 37.4719 20.6231 37.4705C21.4295 37.4705 22.2274 37.1664 22.8351 36.5513C23.4427 35.9474 23.7452 35.1598 23.7452 34.3622C23.7452 33.5717 23.4427 32.7727 22.8351 32.1646L15.4723 24.8323L13.6195 26.6777L21.0661 34.1006Z" fill="#EBEBEB"/>
<path d="M20.1078 24.3329L20.8319 23.6089L28.2841 31.026L30.1128 29.206L22.7556 21.878C22.1508 21.2642 21.3444 20.9559 20.5479 20.9588C19.7429 20.9588 18.9464 21.2642 18.3388 21.878C17.7311 22.4818 17.4287 23.2723 17.4287 24.0713C17.4287 24.8618 17.7283 25.6594 18.3374 26.2632L25.703 33.5998L27.553 31.7543L20.1078 24.3329Z" fill="#EBEBEB"/>
<path d="M5.4321 19.5099L4.70519 18.7844L12.1575 11.3673L10.3288 9.54443L2.97167 16.8711C2.3555 17.4721 2.04741 18.2753 2.04883 19.0673C2.04883 19.8705 2.3555 20.6638 2.96883 21.2691C3.57365 21.8772 4.36871 22.177 5.16945 22.177C5.96593 22.177 6.76525 21.8772 7.37433 21.2691L14.7372 13.9368L12.8844 12.0913L5.4321 19.5099Z" fill="#EBEBEB"/>
<path d="M15.2406 18.5515L15.9661 19.2756L8.51666 26.697L10.3453 28.5184L17.7053 21.1889C18.3158 20.5879 18.6253 19.7861 18.6225 18.9899C18.6253 18.1895 18.3158 17.3962 17.7053 16.7909C17.0962 16.1843 16.3012 15.8831 15.5018 15.8831C14.7054 15.8831 13.9075 16.1843 13.2984 16.7909L5.93555 24.1247L7.7869 25.9687L15.2406 18.5515Z" fill="#EBEBEB"/>
</g>
<defs>
<clipPath id="clip0_217_2212">
<rect width="115" height="70" fill="white"/>
</clipPath>
</defs>
</svg>
